{"accessors":[{"bufferView":1,"componentType":5126,"count":65159,"max":[5.563298225402832,3.711543083190918,14.280590057373047],"min":[0,0,0],"type":"VEC3"},{"bufferView":1,"byteOffset":781908,"componentType":5126,"count":65159,"max":[0.999984622001648,0.9999938607215881,1],"min":[-0.999984622001648,-0.999997615814209,-0.9998325705528259],"type":"VEC3"},{"bufferView":0,"componentType":5125,"count":388536,"type":"SCALAR"}],"asset":{"extras":{"author":"RSanmartin (https://sketchfab.com/r.sanmartin)","license":"CC-BY-4.0 (http://creativecommons.org/licenses/by/4.0/)","source":"https://sketchfab.com/3d-models/anubis-god-desert-33feefd16e864dc69e24da951f450cf6","title":"Anubis God Desert"},"generator":"Sketchfab-12.68.0","version":"2.0"},"bufferViews":[{"buffer":0,"byteLength":1554144,"name":"floatBufferViews","target":34963},{"buffer":0,"byteLength":1563816,"byteOffset":1554144,"byteStride":12,"name":"floatBufferViews","target":34962}],"buffers":[{"byteLength":3117960,"uri":"data:application/octet-stream;base64,"}],"extensionsRequired":["KHR_materials_pbrSpecularGlossiness"],"extensionsUsed":["KHR_materials_pbrSpecularGlossiness"],"materials":[{"doubleSided":true,"extensions":{"KHR_materials_pbrSpecularGlossiness":{"diffuseFactor":[0,0,0,1],"glossinessFactor":1,"specularFactor":[1,1,1]}},"name":"null"}],"meshes":[{"name":"Object_0","primitives":[{"attributes":{"NORMAL":1,"POSITION":0},"indices":2,"material":0,"mode":4}]}],"nodes":[{"children":[1],"matrix":[1,0,0,0,0,2.220446049250313e-16,-1,0,0,1,2.220446049250313e-16,0,0,0,0,1],"name":"Sketchfab_model"},{"children":[2],"matrix":[1,0,0,0,0,1,0,0,0,0,1,0,-2.781649112701416,-1.9510639905929565,-8.58022403717041,1],"name":"AnubisScketch.obj.cleaner.gles"},{"mesh":0,"name":"Object_2"}],"scene":0,"scenes":[{"name":"Sketchfab_Scene","nodes":[0]}]}